# xmcd CD database file
#
# Track frame offsets:
#	150
#	16717
#	34020
#	54893
#	71912
#	90640
#	108555
#	128561
#	144602
#
# Disc length: 2170 seconds
#
# Revision: 0
# Processed by: cddbd v1.5.2PL0 Copyright (c) Steve Scherf et al.
# Submitted via: CDex 1.70beta2
#
DISCID=71087809
DTITLE=John Kelly - forGIVEN
DYEAR=2004
DGENRE=Country
TTITLE0=And I
TTITLE1=A Little Help
TTITLE2=Let It Go
TTITLE3=Jackson
TTITLE4=Cowboy On The Loose
TTITLE5=Don't Leave Me Now
TTITLE6=Handle With Care
TTITLE7=The Square
TTITLE8=Take Your Time
EXTD=YEAR: 2004
EXTT0=
EXTT1=
EXTT2=
EXTT3=
EXTT4=
EXTT5=
EXTT6=
EXTT7=
EXTT8=
PLAYORDER=
